<svg xmlns="http://www.w3.org/2000/svg" xmlns:xlink="http://www.w3.org/1999/xlink" width="100" zoomAndPan="magnify" viewBox="0 0 75 44.999999" height="60" preserveAspectRatio="xMidYMid meet" version="1.0"><defs><filter x="0%" y="0%" width="100%" height="100%" id="5024d98dc9"><feColorMatrix values="0 0 0 0 1 0 0 0 0 1 0 0 0 0 1 0 0 0 1 0" color-interpolation-filters="sRGB"/></filter><g/><clipPath id="347502d054"><path d="M 0 3 L 75 3 L 75 42.75 L 0 42.75 Z M 0 3 " clip-rule="nonzero"/></clipPath><clipPath id="c5be2ede01"><path d="M 37 0 L 44 0 L 44 42.75 L 37 42.75 Z M 37 0 " clip-rule="nonzero"/></clipPath><clipPath id="bfb54779f4"><path d="M 37 3 L 39 3 L 39 42.75 L 37 42.75 Z M 37 3 " clip-rule="nonzero"/></clipPath><clipPath id="da079bc038"><path d="M 34 13.5 L 41 13.5 L 41 20 L 34 20 Z M 34 13.5 " clip-rule="nonzero"/></clipPath><clipPath id="3e2e9480df"><path d="M 36 13.5 L 38 13.5 L 38 15 L 36 15 Z M 36 13.5 " clip-rule="nonzero"/></clipPath><clipPath id="3ccecd16ed"><path d="M 37 13.5 L 39 13.5 L 39 14 L 37 14 Z M 37 13.5 " clip-rule="nonzero"/></clipPath><clipPath id="4502df543c"><path d="M 25.359375 16 L 41 16 L 41 31.5 L 25.359375 31.5 Z M 25.359375 16 " clip-rule="nonzero"/></clipPath><clipPath id="f9419bec33"><path d="M 25.359375 16 L 37 16 L 37 28 L 25.359375 28 Z M 25.359375 16 " clip-rule="nonzero"/></clipPath><mask id="5342ee0f93"><g filter="url(#5024d98dc9)"><rect x="-7.5" width="90" fill="#000000" y="-4.5" height="53.999999" fill-opacity="0.2"/></g></mask><clipPath id="46cba0ab76"><path d="M 0.0390625 0.160156 L 2 0.160156 L 2 2 L 0.0390625 2 Z M 0.0390625 0.160156 " clip-rule="nonzero"/></clipPath><clipPath id="62fa1c8a4e"><path d="M 0.0390625 0.160156 L 3 0.160156 L 3 3 L 0.0390625 3 Z M 0.0390625 0.160156 " clip-rule="nonzero"/></clipPath><clipPath id="c108a06e81"><path d="M 2 3 L 4 3 L 4 4.480469 L 2 4.480469 Z M 2 3 " clip-rule="nonzero"/></clipPath><clipPath id="14c038fe10"><rect x="0" width="5" y="0" height="5"/></clipPath><clipPath id="dd20a12e04"><path d="M 38 29 L 41 29 L 41 31.5 L 38 31.5 Z M 38 29 " clip-rule="nonzero"/></clipPath><mask id="8d32c05396"><g filter="url(#5024d98dc9)"><rect x="-7.5" width="90" fill="#000000" y="-4.5" height="53.999999" fill-opacity="0.2"/></g></mask><clipPath id="399f55025e"><path d="M 0.160156 0.28125 L 2 0.28125 L 2 2.199219 L 0.160156 2.199219 Z M 0.160156 0.28125 " clip-rule="nonzero"/></clipPath><clipPath id="bb85ec7fca"><rect x="0" width="3" y="0" height="3"/></clipPath><clipPath id="2634bb3517"><path d="M 34 16 L 49.359375 16 L 49.359375 31.5 L 34 31.5 Z M 34 16 " clip-rule="nonzero"/></clipPath><mask id="b84bc5ea3a"><g filter="url(#5024d98dc9)"><rect x="-7.5" width="90" fill="#000000" y="-4.5" height="53.999999" fill-opacity="0.2"/></g></mask><clipPath id="a222e19e80"><path d="M 3 0.160156 L 4.839844 0.160156 L 4.839844 2 L 3 2 Z M 3 0.160156 " clip-rule="nonzero"/></clipPath><clipPath id="2e39aaa33f"><path d="M 2 0.160156 L 4.839844 0.160156 L 4.839844 3 L 2 3 Z M 2 0.160156 " clip-rule="nonzero"/></clipPath><clipPath id="e98b4d05d6"><path d="M 0.761719 3 L 3 3 L 3 4.480469 L 0.761719 4.480469 Z M 0.761719 3 " clip-rule="nonzero"/></clipPath><clipPath id="515a0be03e"><path d="M 0.761719 2 L 3 2 L 3 4 L 0.761719 4 Z M 0.761719 2 " clip-rule="nonzero"/></clipPath><clipPath id="e5d57f14e5"><rect x="0" width="5" y="0" height="5"/></clipPath><clipPath id="0f225625e6"><path d="M 34 29 L 37 29 L 37 31.5 L 34 31.5 Z M 34 29 " clip-rule="nonzero"/></clipPath><mask id="ddace1a668"><g filter="url(#5024d98dc9)"><rect x="-7.5" width="90" fill="#000000" y="-4.5" height="53.999999" fill-opacity="0.2"/></g></mask><clipPath id="9c363cb1ce"><path d="M 0.558594 0.28125 L 2.480469 0.28125 L 2.480469 2.199219 L 0.558594 2.199219 Z M 0.558594 0.28125 " clip-rule="nonzero"/></clipPath><clipPath id="81e6e2f717"><rect x="0" width="3" y="0" height="3"/></clipPath></defs><rect x="-7.5" width="90" fill="#ffffff" y="-4.5" height="53.999999" fill-opacity="1"/><rect x="-7.5" width="90" fill="#4c608e" y="-4.5" height="53.999999" fill-opacity="1"/><g clip-path="url(#347502d054)"><path fill="#ffffff" d="M 74.9375 3.746094 L 74.9375 42.519531 L 0.0664062 42.519531 L 0.0664062 3.746094 Z M 74.9375 3.746094 " fill-opacity="1" fill-rule="nonzero"/><path fill="#ffffff" d="M 75 42.585938 L 0 42.585938 L 0 3.683594 L 75 3.683594 Z M 0.128906 42.457031 L 74.871094 42.457031 L 74.871094 3.8125 L 0.128906 3.8125 Z M 0.128906 42.457031 " fill-opacity="1" fill-rule="nonzero"/></g><path fill="#4c608e" d="M 0.855469 4.554688 L 74.144531 4.554688 L 74.144531 41.710938 L 0.855469 41.710938 Z M 0.855469 4.554688 " fill-opacity="1" fill-rule="nonzero"/><path fill="#ffffff" d="M 26.105469 4.554688 L 26.882812 4.554688 L 26.882812 41.710938 L 26.105469 41.710938 Z M 26.105469 4.554688 " fill-opacity="1" fill-rule="nonzero"/><path fill="#ffffff" d="M 0.855469 22.746094 L 26.492188 22.746094 L 26.492188 23.519531 L 0.855469 23.519531 Z M 0.855469 22.746094 " fill-opacity="1" fill-rule="nonzero"/><path fill="#ffffff" d="M 26.105469 4.554688 L 26.882812 4.554688 L 26.882812 41.710938 L 26.105469 41.710938 Z M 26.105469 4.554688 " fill-opacity="1" fill-rule="nonzero"/><path fill="#ffffff" d="M 0.855469 22.746094 L 26.492188 22.746094 L 26.492188 23.519531 L 0.855469 23.519531 Z M 0.855469 22.746094 " fill-opacity="1" fill-rule="nonzero"/><path fill="#ffffff" d="M 48.90625 4.554688 L 49.683594 4.554688 L 49.683594 41.710938 L 48.90625 41.710938 Z M 48.90625 4.554688 " fill-opacity="1" fill-rule="nonzero"/><path fill="#ffffff" d="M 49.296875 22.746094 L 74.933594 22.746094 L 74.933594 23.519531 L 49.296875 23.519531 Z M 49.296875 22.746094 " fill-opacity="1" fill-rule="nonzero"/><g clip-path="url(#c5be2ede01)"><path fill="#000000" d="M 43.175781 0.0820312 C 43.039062 0.0195312 42.878906 0.0390625 42.761719 0.136719 L 37.796875 4.257812 C 37.628906 4.394531 37.609375 4.636719 37.746094 4.800781 C 37.882812 4.964844 38.128906 4.988281 38.289062 4.851562 L 38.488281 4.6875 L 38.488281 21.316406 L 38.316406 21.457031 C 38.148438 21.585938 38.117188 21.832031 38.25 22 C 38.3125 22.078125 38.398438 22.125 38.488281 22.140625 L 38.488281 40.839844 L 37.796875 41.417969 C 37.628906 41.554688 37.609375 41.796875 37.746094 41.960938 C 37.820312 42.050781 37.933594 42.101562 38.042969 42.101562 C 38.128906 42.101562 38.21875 42.070312 38.289062 42.011719 L 43.257812 37.886719 C 43.347656 37.8125 43.398438 37.707031 43.398438 37.589844 L 43.398438 0.433594 C 43.398438 0.28125 43.3125 0.148438 43.175781 0.0820312 Z M 42.621094 35.792969 L 42.050781 36.242188 L 42.050781 34.484375 L 42.621094 34.035156 Z M 38.617188 6.40625 L 39.175781 5.96875 L 39.175781 7.726562 L 38.617188 8.164062 Z M 42.621094 18.078125 L 42.050781 18.527344 L 42.050781 17.175781 L 42.621094 16.730469 Z M 40.550781 26.046875 L 40.550781 27.804688 L 39.992188 28.242188 L 39.992188 26.480469 Z M 39.992188 26.320312 L 39.992188 24.558594 L 40.550781 24.125 L 40.550781 25.882812 Z M 40.550781 27.96875 L 40.550781 29.726562 L 39.992188 30.164062 L 39.992188 28.40625 Z M 40.550781 29.890625 L 40.550781 31.648438 L 39.992188 32.085938 L 39.992188 30.328125 Z M 40.550781 31.816406 L 40.550781 33.574219 L 39.992188 34.011719 L 39.992188 32.25 Z M 40.679688 31.714844 L 41.234375 31.277344 L 41.234375 33.035156 L 40.679688 33.472656 Z M 40.679688 31.550781 L 40.679688 29.789062 L 41.234375 29.355469 L 41.234375 31.113281 Z M 40.679688 29.625 L 40.679688 27.867188 L 41.234375 27.429688 L 41.234375 29.191406 Z M 40.679688 27.703125 L 40.679688 25.945312 L 41.234375 25.507812 L 41.234375 27.265625 Z M 40.679688 25.78125 L 40.679688 24.023438 L 41.234375 23.585938 L 41.234375 25.34375 Z M 40.679688 23.855469 L 40.679688 22.097656 L 41.234375 21.660156 L 41.234375 23.421875 Z M 40.679688 21.933594 L 40.679688 20.585938 L 41.234375 20.148438 L 41.234375 21.496094 Z M 40.679688 19.601562 L 40.679688 18.253906 L 41.234375 17.816406 L 41.234375 19.164062 Z M 40.679688 18.089844 L 40.679688 16.328125 L 41.234375 15.894531 L 41.234375 17.652344 Z M 40.679688 10.394531 L 40.679688 8.636719 L 41.234375 8.199219 L 41.234375 9.960938 Z M 41.234375 10.125 L 41.234375 11.882812 L 40.679688 12.316406 L 40.679688 10.558594 Z M 40.550781 10.496094 L 39.992188 10.933594 L 39.992188 9.175781 L 40.550781 8.738281 Z M 40.550781 10.660156 L 40.550781 12.417969 L 39.992188 12.855469 L 39.992188 11.097656 Z M 40.550781 12.585938 L 40.550781 14.34375 L 39.992188 14.78125 L 39.992188 13.019531 Z M 40.679688 12.484375 L 41.234375 12.046875 L 41.234375 13.804688 L 40.679688 14.242188 Z M 41.234375 13.96875 L 41.234375 15.726562 L 40.679688 16.164062 L 40.679688 14.40625 Z M 41.363281 15.789062 L 41.921875 15.355469 L 41.921875 17.113281 L 41.363281 17.550781 Z M 41.363281 15.628906 L 41.363281 13.867188 L 41.921875 13.433594 L 41.921875 15.191406 Z M 41.363281 13.703125 L 41.363281 11.945312 L 41.921875 11.507812 L 41.921875 13.269531 Z M 41.363281 11.78125 L 41.363281 10.023438 L 41.921875 9.585938 L 41.921875 11.34375 Z M 41.363281 9.859375 L 41.363281 8.097656 L 41.921875 7.664062 L 41.921875 9.421875 Z M 41.363281 7.933594 L 41.363281 6.175781 L 41.921875 5.738281 L 41.921875 7.5 Z M 41.234375 8.035156 L 40.679688 8.472656 L 40.679688 6.714844 L 41.234375 6.277344 Z M 40.679688 6.550781 L 40.679688 4.792969 L 41.234375 4.355469 L 41.234375 6.113281 Z M 40.550781 6.652344 L 39.992188 7.089844 L 39.992188 5.328125 L 40.550781 4.894531 Z M 40.550781 6.816406 L 40.550781 8.574219 L 39.992188 9.011719 L 39.992188 7.253906 Z M 39.863281 9.113281 L 39.304688 9.550781 L 39.304688 7.789062 L 39.863281 7.355469 Z M 39.863281 9.277344 L 39.863281 11.035156 L 39.304688 11.472656 L 39.304688 9.714844 Z M 39.863281 11.199219 L 39.863281 12.960938 L 39.304688 13.394531 L 39.304688 11.636719 Z M 39.863281 13.121094 L 39.863281 14.882812 L 39.304688 15.316406 L 39.304688 13.558594 Z M 39.863281 15.046875 L 39.863281 16.804688 L 39.304688 17.242188 L 39.304688 15.480469 Z M 39.992188 14.945312 L 40.550781 14.507812 L 40.550781 16.265625 L 39.992188 16.703125 Z M 40.550781 16.429688 L 40.550781 18.1875 L 39.992188 18.625 L 39.992188 16.867188 Z M 40.550781 18.355469 L 40.550781 19.703125 L 39.992188 20.140625 L 39.992188 18.789062 Z M 40.550781 20.6875 L 40.550781 22.035156 L 39.992188 22.472656 L 39.992188 21.121094 Z M 40.550781 22.199219 L 40.550781 23.957031 L 39.992188 24.394531 L 39.992188 22.636719 Z M 39.863281 24.496094 L 39.304688 24.933594 L 39.304688 23.175781 L 39.863281 22.738281 Z M 39.863281 24.660156 L 39.863281 26.421875 L 39.304688 26.855469 L 39.304688 25.097656 Z M 39.863281 26.582031 L 39.863281 28.34375 L 39.304688 28.777344 L 39.304688 27.019531 Z M 39.863281 28.507812 L 39.863281 30.265625 L 39.304688 30.703125 L 39.304688 28.941406 Z M 39.863281 30.429688 L 39.863281 32.1875 L 39.304688 32.625 L 39.304688 30.867188 Z M 39.863281 32.351562 L 39.863281 34.113281 L 39.304688 34.546875 L 39.304688 32.789062 Z M 39.863281 34.277344 L 39.863281 36.035156 L 39.304688 36.472656 L 39.304688 34.710938 Z M 39.992188 34.175781 L 40.550781 33.738281 L 40.550781 35.496094 L 39.992188 35.933594 Z M 40.550781 35.660156 L 40.550781 37.417969 L 39.992188 37.855469 L 39.992188 36.097656 Z M 40.679688 35.558594 L 41.234375 35.121094 L 41.234375 36.882812 L 40.679688 37.316406 Z M 40.679688 35.394531 L 40.679688 33.636719 L 41.234375 33.199219 L 41.234375 34.960938 Z M 41.363281 33.097656 L 41.921875 32.660156 L 41.921875 34.421875 L 41.363281 34.855469 Z M 41.363281 32.933594 L 41.363281 31.175781 L 41.921875 30.738281 L 41.921875 32.5 Z M 41.363281 31.011719 L 41.363281 29.253906 L 41.921875 28.816406 L 41.921875 30.574219 Z M 41.363281 29.089844 L 41.363281 27.328125 L 41.921875 26.894531 L 41.921875 28.652344 Z M 41.363281 27.164062 L 41.363281 25.40625 L 41.921875 24.96875 L 41.921875 26.730469 Z M 41.363281 25.242188 L 41.363281 23.484375 L 41.921875 23.046875 L 41.921875 24.804688 Z M 41.363281 23.320312 L 41.363281 21.558594 L 41.921875 21.125 L 41.921875 22.882812 Z M 41.363281 21.394531 L 41.363281 20.046875 L 41.921875 19.609375 L 41.921875 20.960938 Z M 41.363281 19.0625 L 41.363281 17.714844 L 41.921875 17.277344 L 41.921875 18.625 Z M 42.621094 16.5625 L 42.050781 17.011719 L 42.050781 15.253906 L 42.621094 14.804688 Z M 42.621094 14.640625 L 42.050781 15.089844 L 42.050781 13.332031 L 42.621094 12.882812 Z M 42.621094 12.71875 L 42.050781 13.167969 L 42.050781 11.40625 L 42.621094 10.960938 Z M 42.621094 10.792969 L 42.050781 11.242188 L 42.050781 9.484375 L 42.621094 9.035156 Z M 42.621094 8.871094 L 42.050781 9.320312 L 42.050781 7.5625 L 42.621094 7.113281 Z M 42.621094 6.949219 L 42.050781 7.398438 L 42.050781 5.640625 L 42.621094 5.191406 Z M 42.621094 5.027344 L 42.050781 5.476562 L 42.050781 3.714844 L 42.621094 3.265625 Z M 41.921875 5.574219 L 41.363281 6.011719 L 41.363281 4.253906 L 41.921875 3.816406 Z M 41.363281 4.089844 L 41.363281 2.300781 L 41.921875 1.839844 L 41.921875 3.652344 Z M 41.234375 4.191406 L 40.679688 4.625 L 40.679688 2.871094 L 41.234375 2.40625 Z M 40.550781 4.726562 L 39.992188 5.164062 L 39.992188 3.441406 L 40.550781 2.976562 Z M 39.863281 5.265625 L 39.304688 5.703125 L 39.304688 4.027344 L 39.28125 4.027344 L 39.863281 3.546875 Z M 39.863281 5.429688 L 39.863281 7.191406 L 39.304688 7.625 L 39.304688 5.867188 Z M 38.617188 8.328125 L 39.175781 7.890625 L 39.175781 9.652344 L 38.617188 10.085938 Z M 38.617188 10.25 L 39.175781 9.816406 L 39.175781 11.574219 L 38.617188 12.011719 Z M 38.617188 12.175781 L 39.175781 11.738281 L 39.175781 13.496094 L 38.617188 13.933594 Z M 38.617188 14.097656 L 39.175781 13.660156 L 39.175781 15.421875 L 38.617188 15.855469 Z M 38.617188 16.019531 L 39.175781 15.585938 L 39.175781 17.34375 L 38.617188 17.78125 Z M 38.617188 17.941406 L 39.175781 17.507812 L 39.175781 19.265625 L 38.617188 19.703125 Z M 39.304688 17.40625 L 39.863281 16.96875 L 39.863281 18.726562 L 39.304688 19.164062 Z M 39.863281 18.890625 L 39.863281 20.242188 L 39.304688 20.675781 L 39.304688 19.328125 Z M 39.863281 21.222656 L 39.863281 22.574219 L 39.304688 23.011719 L 39.304688 21.660156 Z M 39.175781 23.113281 L 38.617188 23.546875 L 38.617188 22.140625 C 38.679688 22.128906 38.742188 22.101562 38.792969 22.0625 L 39.175781 21.761719 Z M 38.617188 23.710938 L 39.175781 23.277344 L 39.175781 25.035156 L 38.617188 25.472656 Z M 38.617188 25.636719 L 39.175781 25.199219 L 39.175781 26.957031 L 38.617188 27.394531 Z M 38.617188 27.558594 L 39.175781 27.121094 L 39.175781 28.882812 L 38.617188 29.316406 Z M 38.617188 29.480469 L 39.175781 29.046875 L 39.175781 30.804688 L 38.617188 31.242188 Z M 38.617188 31.402344 L 39.175781 30.96875 L 39.175781 32.726562 L 38.617188 33.164062 Z M 38.617188 33.328125 L 39.175781 32.890625 L 39.175781 34.648438 L 38.617188 35.085938 Z M 38.617188 35.25 L 39.175781 34.8125 L 39.175781 36.574219 L 38.617188 37.007812 Z M 38.617188 37.171875 L 39.175781 36.738281 L 39.175781 38.496094 L 38.617188 38.933594 Z M 39.304688 36.636719 L 39.863281 36.199219 L 39.863281 37.957031 L 39.304688 38.394531 Z M 39.863281 38.121094 L 39.863281 39.699219 L 39.304688 40.160156 L 39.304688 38.558594 Z M 39.992188 38.019531 L 40.550781 37.585938 L 40.550781 39.128906 L 39.992188 39.59375 Z M 40.679688 37.484375 L 41.234375 37.046875 L 41.234375 38.5625 L 40.679688 39.023438 Z M 41.363281 36.945312 L 41.921875 36.507812 L 41.921875 37.992188 L 41.363281 38.453125 Z M 41.363281 36.78125 L 41.363281 35.019531 L 41.921875 34.585938 L 41.921875 36.34375 Z M 42.621094 33.871094 L 42.050781 34.320312 L 42.050781 32.5625 L 42.621094 32.113281 Z M 42.621094 31.949219 L 42.050781 32.398438 L 42.050781 30.636719 L 42.621094 30.191406 Z M 42.621094 30.023438 L 42.050781 30.472656 L 42.050781 28.714844 L 42.621094 28.265625 Z M 42.621094 28.101562 L 42.050781 28.550781 L 42.050781 26.792969 L 42.621094 26.34375 Z M 42.621094 26.179688 L 42.050781 26.628906 L 42.050781 24.867188 L 42.621094 24.421875 Z M 42.621094 24.253906 L 42.050781 24.703125 L 42.050781 22.945312 L 42.621094 22.496094 Z M 42.621094 22.332031 L 42.050781 22.78125 L 42.050781 21.023438 L 42.621094 20.574219 Z M 42.621094 20.410156 L 42.050781 20.859375 L 42.050781 19.507812 L 42.621094 19.0625 Z M 42.621094 3.101562 L 42.050781 3.550781 L 42.050781 1.730469 L 42.621094 1.257812 Z M 39.175781 4.117188 L 39.175781 5.804688 L 38.617188 6.242188 L 38.617188 4.628906 L 38.5625 4.628906 Z M 38.617188 19.867188 L 39.175781 19.429688 L 39.175781 20.777344 L 38.617188 21.214844 Z M 38.617188 39.097656 L 39.175781 38.660156 L 39.175781 40.269531 L 38.617188 40.730469 Z M 42.050781 37.882812 L 42.050781 36.40625 L 42.621094 35.957031 L 42.621094 37.410156 Z M 42.050781 37.882812 " fill-opacity="0.29" fill-rule="nonzero"/></g><g clip-path="url(#bfb54779f4)"><path fill="#000000" d="M 37.796875 3.613281 C 37.4375 3.613281 37.148438 3.902344 37.148438 4.257812 L 37.148438 42.097656 C 37.148438 42.453125 37.4375 42.742188 37.796875 42.742188 C 38.152344 42.742188 38.441406 42.453125 38.441406 42.097656 L 38.441406 4.257812 C 38.441406 3.902344 38.152344 3.613281 37.796875 3.613281 Z M 37.796875 3.613281 " fill-opacity="1" fill-rule="nonzero"/></g><g clip-path="url(#da079bc038)"><path fill="#ffe642" d="M 40.152344 15.511719 C 40.078125 15.304688 39.984375 15.109375 39.867188 14.925781 C 39.464844 14.28125 38.824219 13.800781 38.074219 13.605469 C 37.867188 13.550781 37.652344 13.519531 37.429688 13.511719 C 37.394531 13.507812 37.359375 13.507812 37.324219 13.507812 C 35.9375 13.507812 34.773438 14.453125 34.421875 15.738281 C 34.367188 15.9375 34.332031 16.144531 34.316406 16.355469 C 34.3125 16.421875 34.3125 16.488281 34.3125 16.554688 C 34.3125 18.238281 35.660156 19.601562 37.324219 19.601562 C 38.984375 19.601562 40.335938 18.238281 40.335938 16.554688 C 40.335938 16.1875 40.269531 15.835938 40.152344 15.511719 Z M 36.691406 13.894531 C 36.90625 13.855469 37.097656 13.929688 37.121094 14.058594 C 37.125 14.078125 37.125 14.097656 37.121094 14.117188 C 37.066406 14.132812 36.957031 14.15625 36.835938 14.105469 C 36.710938 14.058594 36.644531 13.96875 36.617188 13.914062 C 36.640625 13.90625 36.664062 13.898438 36.691406 13.894531 Z M 36.347656 18.175781 C 36.375 18.191406 36.402344 18.214844 36.425781 18.234375 C 36.527344 18.324219 36.597656 18.433594 36.617188 18.53125 C 36.539062 18.519531 36.375 18.476562 36.246094 18.328125 C 36.167969 18.238281 36.128906 18.140625 36.113281 18.070312 C 36.1875 18.089844 36.269531 18.121094 36.347656 18.175781 Z M 35.375 16.089844 C 35.367188 16.121094 35.363281 16.148438 35.351562 16.179688 C 35.289062 16.144531 35.183594 16.066406 35.128906 15.921875 C 35.070312 15.78125 35.09375 15.652344 35.113281 15.585938 C 35.136719 15.582031 35.160156 15.578125 35.179688 15.582031 C 35.332031 15.609375 35.417969 15.835938 35.375 16.089844 Z M 38.039062 16.414062 C 37.949219 16.484375 37.835938 16.523438 37.714844 16.523438 C 37.414062 16.523438 37.171875 16.277344 37.171875 15.972656 C 37.171875 15.914062 37.183594 15.859375 37.199219 15.804688 C 37.289062 15.738281 37.402344 15.699219 37.523438 15.699219 C 37.824219 15.699219 38.066406 15.945312 38.066406 16.246094 C 38.066406 16.304688 38.058594 16.363281 38.039062 16.414062 Z M 38.890625 18.636719 C 38.859375 18.644531 38.828125 18.652344 38.792969 18.652344 C 38.753906 18.652344 38.644531 18.652344 38.585938 18.570312 C 38.550781 18.523438 38.550781 18.46875 38.550781 18.445312 C 38.546875 18.382812 38.570312 18.324219 38.605469 18.28125 C 38.613281 18.28125 38.621094 18.277344 38.632812 18.277344 C 38.761719 18.253906 38.871094 18.285156 38.921875 18.371094 C 38.933594 18.390625 38.9375 18.410156 38.941406 18.433594 C 38.953125 18.496094 38.933594 18.566406 38.890625 18.636719 Z M 39.988281 16.59375 C 39.988281 16.625 39.984375 16.65625 39.980469 16.683594 C 39.980469 16.695312 39.976562 16.703125 39.976562 16.714844 C 39.941406 16.652344 39.898438 16.566406 39.871094 16.460938 C 39.851562 16.382812 39.816406 16.234375 39.828125 16.167969 C 39.925781 16.230469 39.992188 16.398438 39.988281 16.59375 Z M 39.988281 16.59375 " fill-opacity="1" fill-rule="nonzero"/></g><path fill="#debd00" d="M 38.039062 16.414062 C 37.96875 16.636719 37.765625 16.796875 37.523438 16.796875 C 37.222656 16.796875 36.980469 16.550781 36.980469 16.246094 C 36.980469 16.066406 37.066406 15.90625 37.199219 15.804688 C 37.183594 15.859375 37.171875 15.914062 37.171875 15.972656 C 37.171875 16.277344 37.414062 16.523438 37.714844 16.523438 C 37.835938 16.523438 37.949219 16.484375 38.039062 16.414062 Z M 38.039062 16.414062 " fill-opacity="1" fill-rule="nonzero"/><g clip-path="url(#3e2e9480df)"><path fill="#debd00" d="M 37.121094 14.117188 C 37.097656 14.226562 36.957031 14.328125 36.777344 14.363281 C 36.5625 14.402344 36.371094 14.328125 36.347656 14.199219 C 36.328125 14.085938 36.441406 13.96875 36.617188 13.914062 C 36.644531 13.96875 36.710938 14.058594 36.835938 14.105469 C 36.957031 14.15625 37.066406 14.132812 37.121094 14.117188 Z M 37.121094 14.117188 " fill-opacity="1" fill-rule="nonzero"/></g><path fill="#debd00" d="M 38.980469 14.285156 C 38.957031 14.269531 38.933594 14.253906 38.914062 14.242188 C 38.753906 14.160156 38.601562 14.160156 38.550781 14.246094 C 38.492188 14.351562 38.589844 14.53125 38.769531 14.652344 C 38.917969 14.757812 39.082031 14.785156 39.160156 14.726562 C 39.175781 14.71875 39.1875 14.703125 39.195312 14.6875 C 39.253906 14.585938 39.15625 14.40625 38.980469 14.285156 Z M 38.980469 14.285156 " fill-opacity="1" fill-rule="nonzero"/><path fill="#debd00" d="M 36.589844 18.699219 C 36.503906 18.839844 36.253906 18.835938 36.03125 18.6875 C 35.84375 18.5625 35.738281 18.371094 35.761719 18.230469 C 35.765625 18.207031 35.777344 18.183594 35.789062 18.164062 C 35.84375 18.070312 35.96875 18.039062 36.113281 18.070312 C 36.128906 18.140625 36.167969 18.238281 36.246094 18.328125 C 36.375 18.476562 36.539062 18.519531 36.617188 18.53125 C 36.628906 18.59375 36.621094 18.652344 36.589844 18.699219 Z M 36.589844 18.699219 " fill-opacity="1" fill-rule="nonzero"/><path fill="#debd00" d="M 38.890625 18.636719 C 38.84375 18.710938 38.773438 18.78125 38.683594 18.835938 C 38.480469 18.964844 38.253906 18.960938 38.179688 18.832031 C 38.152344 18.785156 38.148438 18.734375 38.160156 18.675781 C 38.183594 18.585938 38.246094 18.492188 38.34375 18.414062 C 38.363281 18.394531 38.390625 18.378906 38.414062 18.363281 C 38.476562 18.324219 38.542969 18.296875 38.605469 18.28125 C 38.570312 18.324219 38.546875 18.382812 38.550781 18.445312 C 38.550781 18.46875 38.550781 18.523438 38.585938 18.570312 C 38.644531 18.652344 38.753906 18.652344 38.792969 18.652344 C 38.828125 18.652344 38.859375 18.644531 38.890625 18.636719 Z M 38.890625 18.636719 " fill-opacity="1" fill-rule="nonzero"/><path fill="#debd00" d="M 35.351562 16.179688 C 35.292969 16.382812 35.15625 16.523438 35.027344 16.5 C 34.878906 16.472656 34.789062 16.246094 34.832031 15.996094 C 34.871094 15.78125 34.988281 15.613281 35.113281 15.585938 C 35.09375 15.652344 35.070312 15.78125 35.128906 15.921875 C 35.183594 16.066406 35.289062 16.144531 35.351562 16.179688 Z M 35.351562 16.179688 " fill-opacity="1" fill-rule="nonzero"/><path fill="#debd00" d="M 35.183594 14.613281 C 35.167969 14.628906 35.152344 14.644531 35.136719 14.65625 C 35.03125 14.753906 34.953125 14.800781 34.957031 14.761719 C 34.957031 14.71875 35.0625 14.578125 35.191406 14.453125 C 35.300781 14.347656 35.390625 14.285156 35.414062 14.292969 C 35.417969 14.296875 35.417969 14.300781 35.417969 14.308594 C 35.417969 14.351562 35.3125 14.488281 35.183594 14.613281 Z M 35.183594 14.613281 " fill-opacity="1" fill-rule="nonzero"/><g clip-path="url(#3ccecd16ed)"><path fill="#debd00" d="M 38.074219 13.605469 C 38.039062 13.628906 37.867188 13.628906 37.691406 13.601562 C 37.667969 13.597656 37.648438 13.59375 37.625 13.589844 C 37.492188 13.566406 37.414062 13.53125 37.429688 13.511719 C 37.652344 13.519531 37.867188 13.550781 38.074219 13.605469 Z M 38.074219 13.605469 " fill-opacity="1" fill-rule="nonzero"/></g><path fill="#debd00" d="M 40.152344 15.511719 C 40.152344 15.515625 40.148438 15.519531 40.148438 15.523438 C 40.144531 15.527344 40.140625 15.527344 40.132812 15.523438 C 40.09375 15.503906 40.007812 15.355469 39.9375 15.191406 C 39.929688 15.167969 39.921875 15.148438 39.914062 15.128906 C 39.875 15.027344 39.859375 14.949219 39.867188 14.925781 C 39.984375 15.109375 40.078125 15.304688 40.152344 15.511719 Z M 40.152344 15.511719 " fill-opacity="1" fill-rule="nonzero"/><path fill="#debd00" d="M 39.804688 18.273438 C 39.792969 18.289062 39.78125 18.308594 39.769531 18.324219 C 39.683594 18.4375 39.613281 18.496094 39.609375 18.460938 C 39.601562 18.414062 39.679688 18.261719 39.78125 18.113281 C 39.871094 17.988281 39.949219 17.910156 39.972656 17.914062 C 39.976562 17.917969 39.980469 17.917969 39.980469 17.925781 C 39.988281 17.96875 39.910156 18.125 39.804688 18.273438 Z M 39.804688 18.273438 " fill-opacity="1" fill-rule="nonzero"/><path fill="#debd00" d="M 37.046875 19.5625 C 37.023438 19.558594 37.003906 19.554688 36.984375 19.554688 C 36.84375 19.535156 36.761719 19.507812 36.789062 19.484375 C 36.824219 19.460938 36.996094 19.457031 37.167969 19.472656 C 37.316406 19.488281 37.421875 19.515625 37.429688 19.539062 C 37.429688 19.542969 37.429688 19.546875 37.425781 19.550781 C 37.390625 19.574219 37.222656 19.578125 37.046875 19.5625 Z M 37.046875 19.5625 " fill-opacity="1" fill-rule="nonzero"/><path fill="#debd00" d="M 34.601562 17.738281 C 34.59375 17.71875 34.585938 17.695312 34.578125 17.675781 C 34.53125 17.539062 34.527344 17.441406 34.570312 17.449219 C 34.621094 17.460938 34.71875 17.609375 34.785156 17.78125 C 34.839844 17.929688 34.859375 18.042969 34.832031 18.066406 C 34.828125 18.070312 34.820312 18.070312 34.8125 18.070312 C 34.761719 18.058594 34.667969 17.910156 34.601562 17.738281 Z M 34.601562 17.738281 " fill-opacity="1" fill-rule="nonzero"/><path fill="#debd00" d="M 34.410156 16.09375 C 34.386719 16.230469 34.351562 16.332031 34.316406 16.355469 C 34.332031 16.144531 34.367188 15.9375 34.421875 15.738281 C 34.4375 15.808594 34.4375 15.949219 34.410156 16.09375 Z M 34.410156 16.09375 " fill-opacity="1" fill-rule="nonzero"/><path fill="#debd00" d="M 39.976562 16.714844 C 39.941406 16.898438 39.84375 17.027344 39.730469 17.019531 C 39.59375 17.011719 39.488281 16.808594 39.492188 16.566406 C 39.496094 16.359375 39.582031 16.1875 39.691406 16.148438 C 39.710938 16.140625 39.730469 16.136719 39.75 16.136719 C 39.777344 16.140625 39.804688 16.148438 39.828125 16.167969 C 39.816406 16.234375 39.851562 16.382812 39.871094 16.460938 C 39.898438 16.566406 39.941406 16.652344 39.976562 16.714844 Z M 39.976562 16.714844 " fill-opacity="1" fill-rule="nonzero"/><g clip-path="url(#4502df543c)"><path fill="#1d1d1b" d="M 28.925781 17.195312 L 26.203125 19.953125 C 25.359375 20.808594 25.359375 22.199219 26.203125 23.054688 L 30.046875 26.941406 C 30.605469 27.507812 31.421875 27.71875 32.183594 27.496094 L 32.171875 27.460938 L 32.183594 27.476562 L 32.1875 27.496094 C 32.1875 27.496094 32.191406 27.492188 32.191406 27.492188 C 32.210938 27.488281 32.230469 27.480469 32.25 27.476562 L 32.253906 27.476562 C 32.554688 27.378906 32.847656 27.269531 33.132812 27.152344 C 33.210938 27.117188 33.285156 27.085938 33.347656 27.058594 C 33.640625 26.933594 33.753906 26.890625 33.921875 26.886719 C 34.023438 26.886719 34.125 26.902344 34.230469 26.933594 C 34.183594 27.078125 34.214844 27.246094 34.328125 27.363281 C 34.480469 27.515625 34.722656 27.527344 34.886719 27.390625 L 38.046875 30.585938 L 37.917969 30.714844 L 38.683594 31.492188 L 40.332031 29.824219 L 39.566406 29.050781 L 39.414062 29.203125 L 36.253906 26.007812 C 36.386719 25.839844 36.378906 25.597656 36.226562 25.445312 C 36.113281 25.328125 35.953125 25.296875 35.8125 25.339844 C 35.777344 25.234375 35.761719 25.125 35.765625 25.023438 C 35.765625 24.851562 35.808594 24.738281 35.933594 24.441406 C 35.960938 24.375 35.992188 24.304688 36.027344 24.226562 C 36.117188 23.996094 36.203125 23.761719 36.285156 23.523438 C 36.644531 22.699219 36.464844 21.722656 35.835938 21.082031 L 31.992188 17.195312 C 31.148438 16.339844 29.773438 16.339844 28.925781 17.195312 Z M 28.925781 17.195312 " fill-opacity="1" fill-rule="nonzero"/></g><g clip-path="url(#f9419bec33)"><path fill="#debd00" d="M 31.703125 17.492188 L 35.542969 21.378906 C 36.078125 21.917969 36.195312 22.714844 35.902344 23.371094 C 35.808594 23.660156 35.714844 23.894531 35.648438 24.066406 C 35.472656 24.496094 35.359375 24.695312 35.355469 25.015625 C 35.351562 25.269531 35.417969 25.480469 35.476562 25.617188 L 34.507812 26.59375 C 34.375 26.535156 34.167969 26.46875 33.917969 26.472656 C 33.601562 26.476562 33.402344 26.589844 32.976562 26.765625 C 32.773438 26.851562 32.484375 26.964844 32.125 27.078125 C 32.109375 27.085938 32.089844 27.09375 32.074219 27.097656 C 32.070312 27.097656 32.070312 27.097656 32.070312 27.097656 C 31.652344 27.21875 31.199219 27.183594 30.804688 26.988281 C 30.714844 26.941406 30.625 26.890625 30.542969 26.828125 C 30.511719 26.804688 30.476562 26.777344 30.445312 26.75 C 30.410156 26.71875 30.371094 26.683594 30.335938 26.648438 L 26.492188 22.761719 C 25.808594 22.066406 25.808594 20.941406 26.492188 20.246094 L 29.214844 17.492188 C 29.71875 16.984375 30.445312 16.847656 31.070312 17.078125 C 31.160156 17.113281 31.25 17.15625 31.335938 17.207031 C 31.371094 17.226562 31.402344 17.246094 31.433594 17.269531 C 31.523438 17.328125 31.609375 17.398438 31.691406 17.476562 C 31.695312 17.480469 31.699219 17.488281 31.703125 17.492188 Z M 31.703125 17.492188 " fill-opacity="1" fill-rule="nonzero"/></g><g mask="url(#5342ee0f93)"><g transform="matrix(1, 0, 0, 1, 35, 26)"><g clip-path="url(#14c038fe10)"><path fill="#ffffff" d="M 1.09375 2.242188 C 1.613281 2.074219 2.132812 1.90625 2.652344 1.742188 L 3.175781 2.269531 C 2.679688 2.460938 2.183594 2.652344 1.6875 2.84375 Z M 1.09375 2.242188 " fill-opacity="1" fill-rule="nonzero"/><g clip-path="url(#46cba0ab76)"><path fill="#ffffff" d="M 1.101562 0.171875 L 1.625 0.699219 C 1.179688 0.941406 0.734375 1.183594 0.285156 1.425781 L 0.0742188 1.210938 Z M 1.101562 0.171875 " fill-opacity="1" fill-rule="nonzero"/></g><g clip-path="url(#62fa1c8a4e)"><path fill="#ffffff" d="M 0.398438 1.539062 C 0.902344 1.355469 1.40625 1.171875 1.910156 0.988281 L 2.324219 1.40625 C 1.863281 1.632812 1.402344 1.859375 0.941406 2.089844 Z M 0.398438 1.539062 " fill-opacity="1" fill-rule="nonzero"/></g><g clip-path="url(#c108a06e81)"><path fill="#ffffff" d="M 2.628906 3.796875 C 3.023438 3.699219 3.417969 3.601562 3.8125 3.5 L 3.074219 4.246094 Z M 2.628906 3.796875 " fill-opacity="1" fill-rule="nonzero"/></g><path fill="#ffffff" d="M 3.449219 2.546875 L 3.921875 3.023438 C 3.421875 3.210938 2.917969 3.398438 2.417969 3.582031 L 1.832031 2.988281 C 2.371094 2.839844 2.910156 2.695312 3.449219 2.546875 Z M 3.449219 2.546875 " fill-opacity="1" fill-rule="nonzero"/></g></g></g><g clip-path="url(#dd20a12e04)"><g mask="url(#8d32c05396)"><g transform="matrix(1, 0, 0, 1, 38, 29)"><g clip-path="url(#bb85ec7fca)"><g clip-path="url(#399f55025e)"><path fill="#ffffff" d="M 0.289062 1.714844 L 1.566406 0.425781 L 1.964844 0.828125 L 0.6875 2.121094 Z M 0.289062 1.714844 " fill-opacity="1" fill-rule="nonzero"/></g></g></g></g></g><path fill="#fcb63a" d="M 31.335938 17.207031 L 30.101562 26.410156 L 29.851562 26.160156 L 31.070312 17.078125 C 31.160156 17.113281 31.25 17.15625 31.335938 17.207031 Z M 31.335938 17.207031 " fill-opacity="1" fill-rule="nonzero"/><path fill="#ffffff" d="M 31.691406 17.476562 L 30.445312 26.75 C 30.410156 26.71875 30.371094 26.683594 30.335938 26.648438 L 30.195312 26.507812 L 31.433594 17.269531 C 31.523438 17.328125 31.609375 17.398438 31.691406 17.476562 Z M 31.691406 17.476562 " fill-opacity="0.2" fill-rule="nonzero"/><path fill="#fcb63a" d="M 31.785156 17.574219 L 32.035156 17.824219 L 30.804688 26.988281 C 30.714844 26.941406 30.625 26.890625 30.542969 26.828125 Z M 31.785156 17.574219 " fill-opacity="1" fill-rule="nonzero"/><g clip-path="url(#2634bb3517)"><path fill="#1d1d1b" d="M 45.789062 17.195312 L 48.511719 19.953125 C 49.359375 20.808594 49.359375 22.199219 48.511719 23.054688 L 44.671875 26.941406 C 44.113281 27.507812 43.292969 27.71875 42.53125 27.496094 L 42.542969 27.460938 L 42.53125 27.476562 L 42.527344 27.496094 C 42.527344 27.496094 42.523438 27.492188 42.523438 27.492188 C 42.503906 27.488281 42.484375 27.480469 42.464844 27.476562 C 42.164062 27.378906 41.867188 27.269531 41.582031 27.152344 C 41.503906 27.117188 41.433594 27.085938 41.367188 27.058594 C 41.074219 26.933594 40.964844 26.890625 40.792969 26.886719 C 40.691406 26.886719 40.589844 26.902344 40.488281 26.933594 C 40.535156 27.078125 40.5 27.246094 40.386719 27.363281 C 40.234375 27.515625 39.992188 27.527344 39.828125 27.390625 L 36.671875 30.585938 L 36.796875 30.714844 L 36.03125 31.492188 L 34.382812 29.824219 L 35.148438 29.050781 L 35.300781 29.203125 L 38.460938 26.007812 C 38.328125 25.839844 38.335938 25.597656 38.488281 25.445312 C 38.601562 25.328125 38.761719 25.296875 38.90625 25.339844 C 38.9375 25.234375 38.953125 25.125 38.953125 25.023438 C 38.949219 24.851562 38.90625 24.738281 38.78125 24.441406 C 38.753906 24.375 38.722656 24.304688 38.691406 24.226562 C 38.597656 23.996094 38.511719 23.761719 38.429688 23.523438 C 38.070312 22.699219 38.25 21.722656 38.882812 21.082031 L 42.722656 17.195312 C 43.566406 16.339844 44.945312 16.339844 45.789062 17.195312 Z M 45.789062 17.195312 " fill-opacity="1" fill-rule="nonzero"/></g><path fill="#debd00" d="M 43.011719 17.492188 L 39.171875 21.378906 C 38.636719 21.917969 38.519531 22.714844 38.8125 23.371094 C 38.910156 23.660156 39 23.894531 39.070312 24.066406 C 39.246094 24.496094 39.355469 24.695312 39.363281 25.015625 C 39.363281 25.269531 39.296875 25.480469 39.242188 25.617188 L 40.207031 26.59375 C 40.34375 26.535156 40.546875 26.46875 40.800781 26.472656 C 41.117188 26.476562 41.3125 26.589844 41.738281 26.765625 C 41.941406 26.851562 42.230469 26.964844 42.589844 27.078125 C 42.605469 27.085938 42.625 27.09375 42.644531 27.097656 C 42.644531 27.097656 42.644531 27.097656 42.648438 27.097656 C 43.0625 27.21875 43.515625 27.183594 43.910156 26.988281 C 44 26.941406 44.089844 26.890625 44.171875 26.828125 C 44.207031 26.804688 44.238281 26.777344 44.269531 26.75 C 44.308594 26.71875 44.34375 26.683594 44.378906 26.648438 L 48.222656 22.761719 C 48.910156 22.066406 48.910156 20.941406 48.222656 20.246094 L 45.5 17.492188 C 45 16.984375 44.269531 16.847656 43.644531 17.078125 C 43.554688 17.113281 43.464844 17.15625 43.378906 17.207031 C 43.34375 17.226562 43.3125 17.246094 43.28125 17.269531 C 43.191406 17.328125 43.105469 17.398438 43.023438 17.476562 C 43.019531 17.480469 43.015625 17.488281 43.011719 17.492188 Z M 43.011719 17.492188 " fill-opacity="1" fill-rule="nonzero"/><g mask="url(#b84bc5ea3a)"><g transform="matrix(1, 0, 0, 1, 35, 26)"><g clip-path="url(#e5d57f14e5)"><path fill="#ffffff" d="M 3.625 2.242188 C 3.101562 2.074219 2.582031 1.90625 2.0625 1.742188 L 1.539062 2.269531 C 2.035156 2.460938 2.53125 2.652344 3.027344 2.84375 Z M 3.625 2.242188 " fill-opacity="1" fill-rule="nonzero"/><g clip-path="url(#a222e19e80)"><path fill="#ffffff" d="M 3.613281 0.171875 L 3.089844 0.699219 C 3.535156 0.941406 3.984375 1.183594 4.429688 1.425781 L 4.640625 1.210938 Z M 3.613281 0.171875 " fill-opacity="1" fill-rule="nonzero"/></g><g clip-path="url(#2e39aaa33f)"><path fill="#ffffff" d="M 4.316406 1.539062 C 3.8125 1.355469 3.308594 1.171875 2.804688 0.988281 L 2.394531 1.40625 C 2.851562 1.632812 3.3125 1.859375 3.773438 2.089844 Z M 4.316406 1.539062 " fill-opacity="1" fill-rule="nonzero"/></g><g clip-path="url(#e98b4d05d6)"><path fill="#ffffff" d="M 2.085938 3.796875 C 1.691406 3.699219 1.296875 3.601562 0.902344 3.5 L 1.640625 4.246094 Z M 2.085938 3.796875 " fill-opacity="1" fill-rule="nonzero"/></g><g clip-path="url(#515a0be03e)"><path fill="#ffffff" d="M 1.269531 2.546875 L 0.792969 3.023438 C 1.292969 3.210938 1.796875 3.398438 2.296875 3.582031 L 2.882812 2.988281 C 2.34375 2.839844 1.804688 2.695312 1.269531 2.546875 Z M 1.269531 2.546875 " fill-opacity="1" fill-rule="nonzero"/></g></g></g></g><g clip-path="url(#0f225625e6)"><g mask="url(#ddace1a668)"><g transform="matrix(1, 0, 0, 1, 34, 29)"><g clip-path="url(#81e6e2f717)"><g clip-path="url(#9c363cb1ce)"><path fill="#ffffff" d="M 0.75 0.828125 L 1.148438 0.425781 L 2.425781 1.714844 L 2.027344 2.121094 Z M 0.75 0.828125 " fill-opacity="1" fill-rule="nonzero"/></g></g></g></g></g><path fill="#fcb63a" d="M 43.378906 17.207031 L 44.613281 26.410156 L 44.863281 26.160156 L 43.644531 17.078125 C 43.554688 17.113281 43.464844 17.15625 43.378906 17.207031 Z M 43.378906 17.207031 " fill-opacity="1" fill-rule="nonzero"/><path fill="#ffffff" d="M 43.023438 17.476562 L 44.269531 26.75 C 44.308594 26.71875 44.34375 26.683594 44.378906 26.648438 L 44.519531 26.507812 L 43.28125 17.269531 C 43.191406 17.328125 43.105469 17.398438 43.023438 17.476562 Z M 43.023438 17.476562 " fill-opacity="0.2" fill-rule="nonzero"/><path fill="#fcb63a" d="M 42.929688 17.574219 L 42.679688 17.824219 L 43.910156 26.988281 C 44 26.941406 44.089844 26.890625 44.171875 26.828125 Z M 42.929688 17.574219 " fill-opacity="1" fill-rule="nonzero"/><g fill="#debd00" fill-opacity="1"><g transform="translate(4.500001, 34.250001)"><g><path d="M 11.09375 -20.578125 C 12.632812 -20.578125 13.957031 -20.300781 15.0625 -19.75 C 16.175781 -19.207031 17.03125 -18.472656 17.625 -17.546875 C 18.21875 -16.628906 18.515625 -15.609375 18.515625 -14.484375 C 18.515625 -13.367188 18.265625 -12.332031 17.765625 -11.375 C 17.265625 -10.414062 16.628906 -9.550781 15.859375 -8.78125 C 15.085938 -8.007812 14.28125 -7.347656 13.4375 -6.796875 C 12.601562 -6.253906 11.828125 -5.835938 11.109375 -5.546875 C 10.398438 -5.253906 9.867188 -5.109375 9.515625 -5.109375 C 9.097656 -5.109375 8.703125 -5.296875 8.328125 -5.671875 C 7.953125 -6.046875 7.695312 -6.394531 7.5625 -6.71875 C 7.28125 -5.4375 7.046875 -4.234375 6.859375 -3.109375 C 6.671875 -1.992188 6.578125 -1.085938 6.578125 -0.390625 C 6.578125 -0.0859375 6.628906 0.078125 6.734375 0.109375 C 6.835938 0.148438 6.890625 0.253906 6.890625 0.421875 C 6.890625 0.703125 6.703125 0.84375 6.328125 0.84375 C 5.960938 0.84375 5.59375 0.703125 5.21875 0.421875 C 4.84375 0.140625 4.53125 -0.21875 4.28125 -0.65625 C 4.039062 -1.101562 3.921875 -1.5625 3.921875 -2.03125 C 3.921875 -2.914062 4.039062 -4.007812 4.28125 -5.3125 C 4.53125 -6.625 4.847656 -8.007812 5.234375 -9.46875 C 5.617188 -10.925781 6.03125 -12.335938 6.46875 -13.703125 C 6.914062 -15.066406 7.328125 -16.25 7.703125 -17.25 C 6.691406 -16.851562 5.765625 -16.398438 4.921875 -15.890625 C 4.085938 -15.378906 3.425781 -14.847656 2.9375 -14.296875 C 2.445312 -13.742188 2.226562 -13.210938 2.28125 -12.703125 C 2.375 -12.585938 2.421875 -12.457031 2.421875 -12.3125 C 2.421875 -12.082031 2.289062 -11.96875 2.03125 -11.96875 C 1.769531 -11.96875 1.507812 -12.132812 1.25 -12.46875 C 1 -12.8125 0.785156 -13.222656 0.609375 -13.703125 C 0.429688 -14.179688 0.34375 -14.617188 0.34375 -15.015625 C 0.34375 -15.710938 0.675781 -16.394531 1.34375 -17.0625 C 2.007812 -17.726562 2.882812 -18.320312 3.96875 -18.84375 C 5.050781 -19.375 6.21875 -19.796875 7.46875 -20.109375 C 8.71875 -20.421875 9.925781 -20.578125 11.09375 -20.578125 Z M 7.765625 -7.5625 C 8.773438 -7.8125 9.789062 -8.210938 10.8125 -8.765625 C 11.84375 -9.316406 12.78125 -9.960938 13.625 -10.703125 C 14.476562 -11.453125 15.164062 -12.257812 15.6875 -13.125 C 16.21875 -13.988281 16.484375 -14.863281 16.484375 -15.75 C 16.484375 -17.5 15.351562 -18.375 13.09375 -18.375 C 12.039062 -18.375 10.921875 -18.210938 9.734375 -17.890625 C 10.078125 -17.796875 10.378906 -17.648438 10.640625 -17.453125 C 10.898438 -17.253906 11.03125 -17.0625 11.03125 -16.875 C 11.03125 -16.726562 10.957031 -16.625 10.8125 -16.5625 C 10.675781 -16.488281 10.484375 -16.1875 10.234375 -15.65625 C 9.992188 -15.132812 9.734375 -14.441406 9.453125 -13.578125 C 9.171875 -12.710938 8.882812 -11.757812 8.59375 -10.71875 C 8.300781 -9.6875 8.023438 -8.632812 7.765625 -7.5625 Z M 7.765625 -7.5625 "/></g></g></g><g fill="#debd00" fill-opacity="1"><g transform="translate(52.641653, 34.250016)"><g><path d="M 13.15625 -8.921875 C 13.757812 -8.691406 14.359375 -8.34375 14.953125 -7.875 C 15.554688 -7.40625 16.054688 -6.851562 16.453125 -6.21875 C 16.847656 -5.59375 17.046875 -4.894531 17.046875 -4.125 C 17.046875 -3.40625 16.835938 -2.757812 16.421875 -2.1875 C 16.015625 -1.613281 15.484375 -1.125 14.828125 -0.71875 C 14.179688 -0.3125 13.488281 -0.00390625 12.75 0.203125 C 12.019531 0.421875 11.316406 0.53125 10.640625 0.53125 C 9.679688 0.53125 8.863281 0.351562 8.1875 0 C 7.507812 -0.351562 6.984375 -0.726562 6.609375 -1.125 C 6.585938 -0.882812 6.570312 -0.660156 6.5625 -0.453125 C 6.550781 -0.242188 6.546875 -0.046875 6.546875 0.140625 C 6.546875 0.441406 6.597656 0.601562 6.703125 0.625 C 6.804688 0.65625 6.859375 0.757812 6.859375 0.9375 C 6.859375 1.21875 6.679688 1.359375 6.328125 1.359375 C 5.960938 1.359375 5.59375 1.210938 5.21875 0.921875 C 4.84375 0.628906 4.53125 0.265625 4.28125 -0.171875 C 4.039062 -0.617188 3.921875 -1.0625 3.921875 -1.5 C 3.921875 -2.34375 4.039062 -3.4375 4.28125 -4.78125 C 4.53125 -6.125 4.84375 -7.550781 5.21875 -9.0625 C 5.59375 -10.582031 5.992188 -12.050781 6.421875 -13.46875 C 6.847656 -14.894531 7.25 -16.109375 7.625 -17.109375 C 6.625 -16.742188 5.707031 -16.304688 4.875 -15.796875 C 4.050781 -15.296875 3.398438 -14.773438 2.921875 -14.234375 C 2.441406 -13.703125 2.210938 -13.191406 2.234375 -12.703125 C 2.328125 -12.585938 2.375 -12.445312 2.375 -12.28125 C 2.375 -12.070312 2.257812 -11.96875 2.03125 -11.96875 C 1.769531 -11.96875 1.503906 -12.132812 1.234375 -12.46875 C 0.972656 -12.8125 0.753906 -13.222656 0.578125 -13.703125 C 0.398438 -14.179688 0.3125 -14.617188 0.3125 -15.015625 C 0.3125 -15.710938 0.660156 -16.394531 1.359375 -17.0625 C 2.066406 -17.726562 2.984375 -18.320312 4.109375 -18.84375 C 5.242188 -19.375 6.472656 -19.796875 7.796875 -20.109375 C 9.128906 -20.421875 10.414062 -20.578125 11.65625 -20.578125 C 13.175781 -20.578125 14.460938 -20.328125 15.515625 -19.828125 C 16.578125 -19.328125 17.390625 -18.675781 17.953125 -17.875 C 18.515625 -17.082031 18.796875 -16.242188 18.796875 -15.359375 C 18.796875 -14.378906 18.515625 -13.488281 17.953125 -12.6875 C 17.390625 -11.882812 16.675781 -11.164062 15.8125 -10.53125 C 14.957031 -9.90625 14.070312 -9.367188 13.15625 -8.921875 Z M 13.6875 -18.375 C 13.101562 -18.375 12.488281 -18.328125 11.84375 -18.234375 C 11.207031 -18.140625 10.550781 -18.007812 9.875 -17.84375 C 10.195312 -17.726562 10.46875 -17.582031 10.6875 -17.40625 C 10.914062 -17.238281 11.03125 -17.0625 11.03125 -16.875 C 11.03125 -16.726562 10.957031 -16.625 10.8125 -16.5625 C 10.644531 -16.488281 10.414062 -16.113281 10.125 -15.4375 C 9.832031 -14.757812 9.53125 -13.890625 9.21875 -12.828125 C 8.90625 -11.765625 8.585938 -10.613281 8.265625 -9.375 C 9.210938 -9.65625 10.179688 -10.046875 11.171875 -10.546875 C 12.171875 -11.054688 13.085938 -11.632812 13.921875 -12.28125 C 14.765625 -12.9375 15.441406 -13.625 15.953125 -14.34375 C 16.472656 -15.070312 16.734375 -15.773438 16.734375 -16.453125 C 16.734375 -17.734375 15.71875 -18.375 13.6875 -18.375 Z M 8.859375 -2.0625 C 9.765625 -2.0625 10.664062 -2.207031 11.5625 -2.5 C 12.46875 -2.789062 13.21875 -3.191406 13.8125 -3.703125 C 14.40625 -4.222656 14.703125 -4.832031 14.703125 -5.53125 C 14.703125 -6.300781 14.34375 -6.847656 13.625 -7.171875 C 12.914062 -7.503906 12.050781 -7.671875 11.03125 -7.671875 C 10.675781 -7.671875 10.332031 -7.65625 10 -7.625 C 9.675781 -7.601562 9.351562 -7.570312 9.03125 -7.53125 L 8.859375 -7.53125 C 8.503906 -7.53125 8.1875 -7.664062 7.90625 -7.9375 C 7.675781 -6.957031 7.460938 -5.988281 7.265625 -5.03125 C 7.066406 -4.082031 6.910156 -3.195312 6.796875 -2.375 C 7.398438 -2.164062 8.085938 -2.0625 8.859375 -2.0625 Z M 8.859375 -2.0625 "/></g></g></g></svg>